# xmcd
#
# Track frame offsets:
#	150
#	13165
#	28287
#	44585
#	59070
#	73840
#	85212
#	96505
#	108507
#	122225
#	132960
#	149795
#	164400
#	179922
#	193085
#	207205
#	220700
#	236142
#
# Disc length: 3375 seconds
#
# Revision: 1
# Processed by: cddbd v1.5PL3 Copyright (c) Steve Scherf et al.
# Submitted via: audiograbber 1.81.03
#
DISCID=2e0d2d12
DTITLE=Various Artist - Black and White Disc 1
DYEAR=1997
DGENRE=Blues
TTITLE0=John Lee Hooker - John Lee's Boogie
TTITLE1=Muddy Waters - Hoochie Coochie Man
TTITLE2=Son House - Death Letter Blues
TTITLE3=Big Joe Williams - Mama Don't Like Me Runnin' Round
TTITLE4=Memphis Slim - Rollin' and Tumblin'
TTITLE5=Joe Turner - The Blues Jumped Over The Rabbit
TTITLE6=Smiley Lwis - Stormy Monday Blues
TTITLE7=Lightning Hopkins - Shotgun Blues
TTITLE8=Tommy Ridgley - Shrewsbury Blues
TTITLE9=Charles Brown Trio - Trouble Blues
TTITLE10=Mississippi Fred McDowell - Drop Down Mama
TTITLE11=Johnny Moore's Three Blazers Vocal - Charles Brown - Drifting Blues
TTITLE12=Brownie McGee and Sonny Terry - Key To The Highway
TTITLE13=T-Bone Walker - Mean Old World
TTITLE14=Amos Milburn - Train Time Blues
TTITLE15=Floyd Dixon - Call Operator 210
TTITLE16=Freddie King - How Many More Years
TTITLE17=Bobby Womack - Laughin' and Clownin' (Live)
EXTD=
EXTT0=
EXTT1=
EXTT2=
EXTT3=
EXTT4=
EXTT5=
EXTT6=
EXTT7=
EXTT8=
EXTT9=
EXTT10=
EXTT11=
EXTT12=
EXTT13=
EXTT14=
EXTT15=
EXTT16=
EXTT17=
PLAYORDER=
